<mxfile host="app.diagrams.net" agent="Mozilla/5.0 (Windows NT 10.0; Win64; x64) AppleWebKit/537.36 (KHTML, like Gecko) Chrome/134.0.0.0 Safari/537.36" version="26.1.1">
  <diagram name="Página-1" id="3RRlYbJIccj2y43U47rz">
    <mxGraphModel>
      <root>
        <mxCell id="0" />
        <mxCell id="1" parent="0" />
        <mxCell id="2" value="Pi" style="whiteSpace=wrap;strokeWidth=2;" vertex="1" parent="1">
          <mxGeometry x="545" y="8" width="73" height="54" as="geometry" />
        </mxCell>
        <mxCell id="3" value="Ratio of a circle&#39;s circumference to its diameter" style="whiteSpace=wrap;strokeWidth=2;" vertex="1" parent="1">
          <mxGeometry x="284" y="170" width="260" height="102" as="geometry" />
        </mxCell>
        <mxCell id="4" value="Approximately equal to 3.14159" style="whiteSpace=wrap;strokeWidth=2;" vertex="1" parent="1">
          <mxGeometry x="594" y="182" width="260" height="78" as="geometry" />
        </mxCell>
        <mxCell id="5" value="Diameter of the circle, d" style="whiteSpace=wrap;strokeWidth=2;" vertex="1" parent="1">
          <mxGeometry x="8" y="374" width="239" height="54" as="geometry" />
        </mxCell>
        <mxCell id="6" value="Commonly used in geometry and trigonometry" style="whiteSpace=wrap;strokeWidth=2;" vertex="1" parent="1">
          <mxGeometry x="297" y="362" width="260" height="78" as="geometry" />
        </mxCell>
        <mxCell id="7" value="Area = π * r^2, where r is the radius" style="whiteSpace=wrap;strokeWidth=2;" vertex="1" parent="1">
          <mxGeometry x="607" y="362" width="260" height="78" as="geometry" />
        </mxCell>
        <mxCell id="8" value="Significance of Pi" style="whiteSpace=wrap;strokeWidth=2;" vertex="1" parent="1">
          <mxGeometry x="1110" y="8" width="183" height="54" as="geometry" />
        </mxCell>
        <mxCell id="9" value="Key element in calculations involving circles" style="whiteSpace=wrap;strokeWidth=2;" vertex="1" parent="1">
          <mxGeometry x="904" y="170" width="260" height="102" as="geometry" />
        </mxCell>
        <mxCell id="10" value="Infinite decimal representation: 3.14159265358979323846..." style="whiteSpace=wrap;strokeWidth=2;" vertex="1" parent="1">
          <mxGeometry x="1214" y="170" width="260" height="102" as="geometry" />
        </mxCell>
        <mxCell id="11" value="Formula applications" style="whiteSpace=wrap;strokeWidth=2;" vertex="1" parent="1">
          <mxGeometry x="929" y="374" width="210" height="54" as="geometry" />
        </mxCell>
        <mxCell id="12" value="Irreducible value" style="whiteSpace=wrap;strokeWidth=2;" vertex="1" parent="1">
          <mxGeometry x="1253" y="374" width="181" height="54" as="geometry" />
        </mxCell>
        <mxCell id="13" value="A mathematical constant" style="curved=1;startArrow=none;endArrow=block;exitX=0;exitY=0.82;entryX=0.5;entryY=0;" edge="1" parent="1" source="2" target="3">
          <mxGeometry relative="1" as="geometry">
            <Array as="points">
              <mxPoint x="414" y="116" />
            </Array>
          </mxGeometry>
        </mxCell>
        <mxCell id="14" value="Represented by the Greek letter π" style="curved=1;startArrow=none;endArrow=block;exitX=1;exitY=0.88;entryX=0.5;entryY=-0.01;" edge="1" parent="1" source="2" target="4">
          <mxGeometry relative="1" as="geometry">
            <Array as="points">
              <mxPoint x="724" y="116" />
            </Array>
          </mxGeometry>
        </mxCell>
        <mxCell id="15" value="Circumference of a circle, C" style="curved=1;startArrow=none;endArrow=block;exitX=0;exitY=0.92;entryX=0.5;entryY=-0.01;" edge="1" parent="1" source="3" target="5">
          <mxGeometry relative="1" as="geometry">
            <Array as="points">
              <mxPoint x="127" y="317" />
            </Array>
          </mxGeometry>
        </mxCell>
        <mxCell id="16" value="Relationship: C = π * d" style="curved=1;startArrow=none;endArrow=block;exitX=0.53;exitY=1;entryX=0.5;entryY=-0.01;" edge="1" parent="1" source="3" target="6">
          <mxGeometry relative="1" as="geometry">
            <Array as="points">
              <mxPoint x="427" y="317" />
            </Array>
          </mxGeometry>
        </mxCell>
        <mxCell id="17" value="Used to calculate area of a circle, A" style="curved=1;startArrow=none;endArrow=block;exitX=1;exitY=0.88;entryX=0.5;entryY=-0.01;" edge="1" parent="1" source="3" target="7">
          <mxGeometry relative="1" as="geometry">
            <Array as="points">
              <mxPoint x="737" y="317" />
            </Array>
          </mxGeometry>
        </mxCell>
        <mxCell id="18" value="Used in engineering, science, and many other disciplines" style="curved=1;startArrow=none;endArrow=block;exitX=0.19;exitY=1;entryX=0.5;entryY=0;" edge="1" parent="1" source="8" target="9">
          <mxGeometry relative="1" as="geometry">
            <Array as="points">
              <mxPoint x="1034" y="116" />
            </Array>
          </mxGeometry>
        </mxCell>
        <mxCell id="19" value="Transcendental number - cannot be expressed as a simple fraction" style="curved=1;startArrow=none;endArrow=block;exitX=0.76;exitY=1;entryX=0.5;entryY=0;" edge="1" parent="1" source="8" target="10">
          <mxGeometry relative="1" as="geometry">
            <Array as="points">
              <mxPoint x="1344" y="116" />
            </Array>
          </mxGeometry>
        </mxCell>
        <mxCell id="20" value="" style="curved=1;startArrow=none;endArrow=block;exitX=0.5;exitY=1;entryX=0.5;entryY=-0.01;" edge="1" parent="1" source="9" target="11">
          <mxGeometry relative="1" as="geometry">
            <Array as="points" />
          </mxGeometry>
        </mxCell>
        <mxCell id="21" value="" style="curved=1;startArrow=none;endArrow=block;exitX=0.5;exitY=1;entryX=0.5;entryY=-0.01;" edge="1" parent="1" source="10" target="12">
          <mxGeometry relative="1" as="geometry">
            <Array as="points" />
          </mxGeometry>
        </mxCell>
      </root>
    </mxGraphModel>
  </diagram>
</mxfile>
